<svg width="150" height="97" viewBox="0 0 150 97" fill="none" xmlns="http://www.w3.org/2000/svg">
<path fill-rule="evenodd" clip-rule="evenodd" d="M109.022 79.0946C109.022 91.5094 104.4 96.6271 90.2964 96.6351H4.85188C1.88993 96.6351 -0.435743 94.0695 0.0692 91.1509C5.32267 60.7857 28.0164 35 60.5422 35C74.4283 35 86.8528 40.116 95.3794 48.3989C103.175 56.1947 109.022 67.401 109.022 79.0946ZM20.3454 84.6978C20.3454 74.2223 31.5518 44.7447 58.5932 44.7447C78.0826 44.7447 88.5581 59.1181 88.5581 71.2989C88.5581 83.967 81.006 86.8904 66.1454 86.8904H22.538C21.0763 86.8904 20.3454 86.4032 20.3454 84.6978ZM132.743 95.6606C127.384 95.6606 115.934 84.2106 115.934 78.851C115.934 73.2478 127.384 61.7978 132.743 61.7978C138.346 61.7978 149.796 73.4914 149.796 78.851C149.796 83.967 138.103 95.6606 132.743 95.6606Z" fill="black"/>
<path d="M80 3.79168C78.4995 4.44364 76.912 4.87317 75.2875 5.06668C76.9947 4.067 78.2786 2.47882 78.8983 0.600014C77.2842 1.54384 75.5213 2.20607 73.685 2.55835C72.9117 1.74796 71.9818 1.10327 70.9516 0.663468C69.9214 0.223669 68.8126 -0.00205611 67.6925 1.4112e-05C63.1575 1.4112e-05 59.4875 3.61668 59.4875 8.07501C59.4843 8.69515 59.5553 9.31344 59.6992 9.91668C56.4472 9.76423 53.2629 8.93467 50.35 7.48106C47.437 6.02745 44.8596 3.98181 42.7825 1.47501C42.0538 2.70345 41.6684 4.10505 41.6667 5.53335C41.6667 8.33335 43.1275 10.8083 45.3333 12.2583C44.0264 12.2273 42.7463 11.8814 41.6017 11.25V11.35C41.6017 15.2667 44.435 18.525 48.185 19.2667C47.4798 19.4547 46.7531 19.5499 46.0233 19.55C45.5055 19.5509 44.9888 19.5007 44.4808 19.4C45.5233 22.6083 48.5575 24.9417 52.1517 25.0084C49.2311 27.2591 45.6455 28.4756 41.9583 28.4667C41.3038 28.4657 40.65 28.4268 40 28.35C43.751 30.7452 48.1112 32.0121 52.5617 32C67.675 32 75.9317 19.6917 75.9317 9.01668C75.9317 8.66668 75.9225 8.31668 75.9058 7.97501C77.5084 6.83506 78.8948 5.41844 80 3.79168Z" fill="black"/>
<path fill-rule="evenodd" clip-rule="evenodd" d="M58 35V28H59V35H58Z" fill="black"/>
<path fill-rule="evenodd" clip-rule="evenodd" d="M62 35V28H63V35H62Z" fill="black"/>
</svg>
