<svg  viewBox="0 0 156 71" fill="none" xmlns="http://www.w3.org/2000/svg">
<path fill-rule="evenodd" clip-rule="evenodd" d="M115.022 44.0946C115.022 56.5094 110.4 61.6271 96.2964 61.635H10.8519C7.88993 61.635 5.56426 59.0694 6.0692 56.1509C11.3227 25.7857 34.0164 0 66.5422 0C80.4283 0 92.8528 5.11596 101.379 13.3989C109.175 21.1947 115.022 32.401 115.022 44.0946ZM26.3454 44.6947C26.3454 34.2192 37.5518 14.7447 64.5932 14.7447C84.0826 14.7447 89.56 24.1181 89.56 36.2989C89.56 48.967 87.006 46.8947 72.1454 46.8947H28.538C27.0763 46.8947 26.3454 46.4 26.3454 44.6947ZM138.743 60.6606C133.384 60.6606 121.934 49.2106 121.934 43.851C121.934 38.2478 133.384 26.7978 138.743 26.7978C144.346 26.7978 155.796 38.4914 155.796 43.851C155.796 48.967 144.103 60.6606 138.743 60.6606Z" fill="currentColor"/>
<path d="M0.297123 59.0247C0.593329 57.7792 1.11084 56.5492 1.84894 55.357C3.2234 56.1585 4.28603 57.2517 5.09327 58.4618C6.46598 60.5197 7.778 60.8 8.5461 60.8C9.11533 60.8 9.99055 60.6692 11.2334 60.2034C12.4686 59.7405 13.9191 59.0015 15.5832 57.9324C17.4472 56.7348 19.2727 55.7738 21.0616 55.1034C22.8428 54.4359 24.7396 54 26.6904 54C30.9624 54 33.6825 55.9863 35.3338 58.4618C36.7065 60.5197 38.0186 60.8 38.7867 60.8C39.3559 60.8 40.2311 60.6692 41.474 60.2034C42.7092 59.7405 44.1597 59.0015 45.8237 57.9324C47.6877 56.7348 49.5133 55.7738 51.3021 55.1034C53.0834 54.4359 54.9802 54 56.931 54C61.203 54 63.9231 55.9863 65.5744 58.4618C66.9471 60.5197 68.2591 60.8 69.0272 60.8C69.5965 60.8 70.4717 60.6692 71.7145 60.2034C72.9498 59.7405 74.4002 59.0015 76.0643 57.9324C77.9283 56.7348 79.7539 55.7738 81.5427 55.1034C83.3239 54.4359 85.2207 54 87.1716 54C91.4435 54 94.1636 55.9863 95.815 58.4618C97.1877 60.5197 98.4997 60.8 99.2678 60.8C99.837 60.8 100.712 60.6692 101.955 60.2034C103.19 59.7405 104.641 59.0015 106.305 57.9324C108.169 56.7348 109.994 55.7738 111.783 55.1034C113.564 54.4359 115.461 54 117.412 54C119.202 54 120.719 54.3487 122 54.936C120.419 59.0632 117.047 62.86 112.23 65.9307L111.848 66.1743C111.377 66.442 110.886 66.7392 110.375 67.0676C108.511 68.2652 106.685 69.2262 104.897 69.8966C103.115 70.5641 101.219 71 99.2678 71C94.9958 71 92.2757 69.0137 90.6244 66.5381C89.2517 64.4803 87.9397 64.2 87.1716 64.2C86.6023 64.2 85.7271 64.3308 84.4843 64.7966C83.249 65.2595 81.7985 65.9985 80.1345 67.0676C78.2705 68.2652 76.4449 69.2262 74.6561 69.8966C72.8749 70.5641 70.978 71 69.0272 71C64.7552 71 62.0352 69.0137 60.3838 66.5381C59.0111 64.4803 57.6991 64.2 56.931 64.2C56.3618 64.2 55.4865 64.3308 54.2437 64.7966C53.0085 65.2595 51.558 65.9985 49.8939 67.0676C48.0299 68.2652 46.2043 69.2262 44.4155 69.8966C42.6343 70.5641 40.7375 71 38.7867 71C34.5147 71 31.7946 69.0137 30.1433 66.5381C28.7706 64.4803 27.4585 64.2 26.6904 64.2C26.1212 64.2 25.246 64.3308 24.0031 64.7966C22.7679 65.2595 21.3174 65.9985 19.6534 67.0676C17.7894 68.2652 15.9638 69.2262 14.175 69.8966C12.3937 70.5641 10.4969 71 8.5461 71C7.7319 71 6.99427 70.93 6.31493 70.7987C4.02212 70.3557 2.62724 68.9947 1.79303 67.6245C0.108953 64.8584 -0.386692 61.9001 0.297123 59.0247Z" fill="#1DA1F2"/>
</svg>
